<svg xmlns="http://www.w3.org/2000/svg" viewBox="0 0 24 24" fill="none" stroke="currentColor" stroke-linecap="round" stroke-linejoin="round">
    <!-- Bold Outer Skeleton -->
    <rect x="2" y="4" width="20" height="15" rx="1.5" stroke-width="1.8" />
    
    <!-- Fine-line Internal Detail -->
    <g stroke-width="0.8">
        <!-- Screws -->
        <circle cx="3.5" cy="5.5" r="0.4" fill="currentColor"/>
        <circle cx="20.5" cy="5.5" r="0.4" fill="currentColor"/>
        <circle cx="3.5" cy="17.5" r="0.4" fill="currentColor"/>
        <circle cx="20.5" cy="17.5" r="0.4" fill="currentColor"/>
        
        <!-- Center Window -->
        <rect x="5.5" y="8" width="13" height="7" rx="1" />
        
        <!-- Detailed Reels -->
        <g stroke-width="0.6">
            <!-- Left Reel -->
            <circle cx="8.5" cy="11.5" r="2.2" />
            <circle cx="8.5" cy="11.5" r="0.8" />
            <path d="M8.5 9.5v0.5 M8.5 13v0.5 M6.5 11.5h0.5 M10.5 11.5h0.5" />
            
            <!-- Right Reel -->
            <circle cx="15.5" cy="11.5" r="2.2" />
            <circle cx="15.5" cy="11.5" r="0.8" />
            <path d="M15.5 9.5v0.5 M15.5 13v0.5 M13.5 11.5h0.5 M17.5 11.5h0.5" />
        </g>
        
        <!-- Magnetic Tape Strip -->
        <path d="M6 19h12" stroke-width="1" />
        <path d="M7.5 15v4" />
        <path d="M16.5 15v4" />
        <path d="M5.5 15.5h13l-1 3.5h-11z" fill="currentColor" fill-opacity="0.1" stroke="none"/>
    </g>
</svg>

