<svg xmlns="http://www.w3.org/2000/svg" viewBox="0 0 24 24" fill="none" stroke="currentColor" stroke-width="2" stroke-linecap="round" stroke-linejoin="round">
    <circle cx="13.5" cy="6.5" r=".5"></circle>
    <circle cx="17.5" cy="10.5" r=".5"></circle>
    <circle cx="8.5" cy="7.5" r=".5"></circle>
    <circle cx="6.5" cy="12.5" r=".5"></circle>
    <path d="M12 2C6.5 2 2 6.5 2 12s4.5 10 10 10c.92 0 1.5-.72 1.5-1.5 0-.39-.15-.74-.41-1.01-.26-.26-.41-.61-.41-1 0-.83.67-1.5 1.5-1.5h1.92c2.76 0 5-2.24 5-5 0-4.42-4.03-8-8.5-8z"></path>
</svg>
